<mxfile host="app.diagrams.net" modified="2023-04-05T14:46:08.165Z" agent="Mozilla/5.0 (Windows NT 10.0; Win64; x64) AppleWebKit/537.36 (KHTML, like Gecko) Chrome/110.0.0.0 YaBrowser/23.3.1.806 Yowser/2.5 Safari/537.36" etag="ZMzMstomqzz8JWCQkFBD" version="21.1.4" type="device">
  <diagram id="bxRbiOaqxQ_qso0ILXsK" name="Страница 1">
    <mxGraphModel dx="2540" dy="1966" grid="0" gridSize="10" guides="1" tooltips="1" connect="1" arrows="1" fold="1" page="0" pageScale="1" pageWidth="827" pageHeight="1169" math="0" shadow="0">
      <root>
        <mxCell id="0" />
        <mxCell id="1" parent="0" />
        <mxCell id="61zmjNbOXToTeWoblzgA-1" value="System" style="swimlane;fontStyle=0;childLayout=stackLayout;horizontal=1;startSize=26;fillColor=none;horizontalStack=0;resizeParent=1;resizeParentMax=0;resizeLast=0;collapsible=1;marginBottom=0;fontSize=16;" parent="1" vertex="1">
          <mxGeometry x="-4" y="321" width="673" height="268" as="geometry">
            <mxRectangle x="-4" y="321" width="115" height="31" as="alternateBounds" />
          </mxGeometry>
        </mxCell>
        <mxCell id="61zmjNbOXToTeWoblzgA-2" value="+ register(string userName, uint userPassword): void&#xa;&#xa;&#xa;&#xa;&#xa;&#xa;" style="text;strokeColor=none;fillColor=none;align=left;verticalAlign=top;spacingLeft=4;spacingRight=4;overflow=hidden;rotatable=0;points=[[0,0.5],[1,0.5]];portConstraint=eastwest;fontSize=16;" parent="61zmjNbOXToTeWoblzgA-1" vertex="1">
          <mxGeometry y="26" width="673" height="26" as="geometry" />
        </mxCell>
        <mxCell id="61zmjNbOXToTeWoblzgA-3" value="+ SignIn(string userName, uint userPassword): void&#xa;" style="text;strokeColor=none;fillColor=none;align=left;verticalAlign=top;spacingLeft=4;spacingRight=4;overflow=hidden;rotatable=0;points=[[0,0.5],[1,0.5]];portConstraint=eastwest;fontSize=16;" parent="61zmjNbOXToTeWoblzgA-1" vertex="1">
          <mxGeometry y="52" width="673" height="26" as="geometry" />
        </mxCell>
        <mxCell id="61zmjNbOXToTeWoblzgA-4" value="+ SignOut(string userName, uint userPassword): void&#xa;&#xa;+ ViewAvailCars(string userName): void&#xa;&#xa;+ MakeSentOrder(string userName, uint carCarring, uint carSpeed): uint&#xa;&#xa;+ ModificatSentOrder(string userName, uint orderID, uint carCarring, uint carSpeed): void&#xa;&#xa;- CheсkUserAuthor(string userName): void" style="text;strokeColor=none;fillColor=none;align=left;verticalAlign=top;spacingLeft=4;spacingRight=4;overflow=hidden;rotatable=0;points=[[0,0.5],[1,0.5]];portConstraint=eastwest;fontSize=16;" parent="61zmjNbOXToTeWoblzgA-1" vertex="1">
          <mxGeometry y="78" width="673" height="190" as="geometry" />
        </mxCell>
        <mxCell id="61zmjNbOXToTeWoblzgA-9" value="UserAccount" style="swimlane;fontStyle=1;align=center;verticalAlign=top;childLayout=stackLayout;horizontal=1;startSize=26;horizontalStack=0;resizeParent=1;resizeParentMax=0;resizeLast=0;collapsible=1;marginBottom=0;fontSize=16;" parent="1" vertex="1">
          <mxGeometry x="822" y="214" width="191" height="104" as="geometry" />
        </mxCell>
        <mxCell id="61zmjNbOXToTeWoblzgA-10" value="+ _userName: string&#xa;+ _userpassword: uint&#xa;+ _activityFlag: bool" style="text;strokeColor=none;fillColor=none;align=left;verticalAlign=top;spacingLeft=4;spacingRight=4;overflow=hidden;rotatable=0;points=[[0,0.5],[1,0.5]];portConstraint=eastwest;fontSize=16;" parent="61zmjNbOXToTeWoblzgA-9" vertex="1">
          <mxGeometry y="26" width="191" height="78" as="geometry" />
        </mxCell>
        <mxCell id="61zmjNbOXToTeWoblzgA-24" value="CarInfo" style="swimlane;fontStyle=1;align=center;verticalAlign=top;childLayout=stackLayout;horizontal=1;startSize=26;horizontalStack=0;resizeParent=1;resizeParentMax=0;resizeLast=0;collapsible=1;marginBottom=0;fontSize=16;" parent="1" vertex="1">
          <mxGeometry x="824" y="411" width="191" height="140" as="geometry" />
        </mxCell>
        <mxCell id="61zmjNbOXToTeWoblzgA-25" value="+ _driverName: string&#xa;+ _carCarring: uint&#xa;+ _carSpeed: uint&#xa;+ _carCondition: bool&#xa;+ _orderID: uint" style="text;strokeColor=none;fillColor=none;align=left;verticalAlign=top;spacingLeft=4;spacingRight=4;overflow=hidden;rotatable=0;points=[[0,0.5],[1,0.5]];portConstraint=eastwest;fontSize=16;" parent="61zmjNbOXToTeWoblzgA-24" vertex="1">
          <mxGeometry y="26" width="191" height="114" as="geometry" />
        </mxCell>
        <mxCell id="61zmjNbOXToTeWoblzgA-26" value="Order" style="swimlane;fontStyle=1;align=center;verticalAlign=top;childLayout=stackLayout;horizontal=1;startSize=26;horizontalStack=0;resizeParent=1;resizeParentMax=0;resizeLast=0;collapsible=1;marginBottom=0;fontSize=16;" parent="1" vertex="1">
          <mxGeometry x="824" y="632" width="191" height="104" as="geometry" />
        </mxCell>
        <mxCell id="61zmjNbOXToTeWoblzgA-27" value="+ _orderID: uint&#xa;+ _carCarring: uint&#xa;+ _carSpeed: uint" style="text;strokeColor=none;fillColor=none;align=left;verticalAlign=top;spacingLeft=4;spacingRight=4;overflow=hidden;rotatable=0;points=[[0,0.5],[1,0.5]];portConstraint=eastwest;fontSize=16;" parent="61zmjNbOXToTeWoblzgA-26" vertex="1">
          <mxGeometry y="26" width="191" height="78" as="geometry" />
        </mxCell>
        <mxCell id="61zmjNbOXToTeWoblzgA-32" value="" style="endArrow=diamondThin;endFill=1;endSize=24;html=1;rounded=0;fontSize=12;sourcePerimeterSpacing=8;targetPerimeterSpacing=8;curved=1;exitX=0;exitY=0.5;exitDx=0;exitDy=0;entryX=1;entryY=0.5;entryDx=0;entryDy=0;" parent="1" source="61zmjNbOXToTeWoblzgA-25" target="61zmjNbOXToTeWoblzgA-4" edge="1">
          <mxGeometry width="160" relative="1" as="geometry">
            <mxPoint x="603" y="509" as="sourcePoint" />
            <mxPoint x="763" y="509" as="targetPoint" />
          </mxGeometry>
        </mxCell>
        <mxCell id="61zmjNbOXToTeWoblzgA-41" value="" style="endArrow=none;html=1;rounded=0;fontSize=12;startSize=14;endSize=14;sourcePerimeterSpacing=8;targetPerimeterSpacing=8;curved=1;entryX=0;entryY=0.5;entryDx=0;entryDy=0;" parent="1" target="61zmjNbOXToTeWoblzgA-10" edge="1">
          <mxGeometry width="50" height="50" relative="1" as="geometry">
            <mxPoint x="751" y="494" as="sourcePoint" />
            <mxPoint x="790" y="281" as="targetPoint" />
            <Array as="points">
              <mxPoint x="748" y="285" />
            </Array>
          </mxGeometry>
        </mxCell>
        <mxCell id="61zmjNbOXToTeWoblzgA-42" value="" style="endArrow=none;html=1;rounded=0;fontSize=12;startSize=14;endSize=14;sourcePerimeterSpacing=8;targetPerimeterSpacing=8;curved=1;entryX=0;entryY=0.5;entryDx=0;entryDy=0;" parent="1" target="61zmjNbOXToTeWoblzgA-27" edge="1">
          <mxGeometry width="50" height="50" relative="1" as="geometry">
            <mxPoint x="751" y="494" as="sourcePoint" />
            <mxPoint x="768" y="569" as="targetPoint" />
            <Array as="points">
              <mxPoint x="751" y="639" />
            </Array>
          </mxGeometry>
        </mxCell>
        <mxCell id="61zmjNbOXToTeWoblzgA-44" value="Dispatcher" style="swimlane;fontStyle=0;childLayout=stackLayout;horizontal=1;startSize=26;fillColor=none;horizontalStack=0;resizeParent=1;resizeParentMax=0;resizeLast=0;collapsible=1;marginBottom=0;fontSize=16;" parent="1" vertex="1">
          <mxGeometry x="1207" y="632" width="673" height="127" as="geometry">
            <mxRectangle x="110" y="338" width="115" height="31" as="alternateBounds" />
          </mxGeometry>
        </mxCell>
        <mxCell id="61zmjNbOXToTeWoblzgA-45" value="+ FindDriver(System.Order userOrder): dynamic&#xa;&#xa;&#xa;&#xa;&#xa;&#xa;" style="text;strokeColor=none;fillColor=none;align=left;verticalAlign=top;spacingLeft=4;spacingRight=4;overflow=hidden;rotatable=0;points=[[0,0.5],[1,0.5]];portConstraint=eastwest;fontSize=16;" parent="61zmjNbOXToTeWoblzgA-44" vertex="1">
          <mxGeometry y="26" width="673" height="26" as="geometry" />
        </mxCell>
        <mxCell id="61zmjNbOXToTeWoblzgA-46" value="+ DistOrderToDriver(uint orderID, string driverName): void&#xa;" style="text;strokeColor=none;fillColor=none;align=left;verticalAlign=top;spacingLeft=4;spacingRight=4;overflow=hidden;rotatable=0;points=[[0,0.5],[1,0.5]];portConstraint=eastwest;fontSize=16;" parent="61zmjNbOXToTeWoblzgA-44" vertex="1">
          <mxGeometry y="52" width="673" height="26" as="geometry" />
        </mxCell>
        <mxCell id="61zmjNbOXToTeWoblzgA-47" value="+ removeOrder(uint orderID): void&#xa;+ ViewOrders(): void&#xa;" style="text;strokeColor=none;fillColor=none;align=left;verticalAlign=top;spacingLeft=4;spacingRight=4;overflow=hidden;rotatable=0;points=[[0,0.5],[1,0.5]];portConstraint=eastwest;fontSize=16;" parent="61zmjNbOXToTeWoblzgA-44" vertex="1">
          <mxGeometry y="78" width="673" height="49" as="geometry" />
        </mxCell>
        <mxCell id="61zmjNbOXToTeWoblzgA-49" value="" style="endArrow=diamondThin;endFill=0;endSize=24;html=1;rounded=0;fontSize=12;sourcePerimeterSpacing=8;targetPerimeterSpacing=8;curved=1;exitX=1;exitY=0.5;exitDx=0;exitDy=0;entryX=0;entryY=0.5;entryDx=0;entryDy=0;" parent="1" source="61zmjNbOXToTeWoblzgA-27" target="61zmjNbOXToTeWoblzgA-46" edge="1">
          <mxGeometry width="160" relative="1" as="geometry">
            <mxPoint x="1031" y="694.25" as="sourcePoint" />
            <mxPoint x="1191" y="694.25" as="targetPoint" />
          </mxGeometry>
        </mxCell>
        <mxCell id="61zmjNbOXToTeWoblzgA-50" value="Driver" style="swimlane;fontStyle=0;childLayout=stackLayout;horizontal=1;startSize=26;fillColor=none;horizontalStack=0;resizeParent=1;resizeParentMax=0;resizeLast=0;collapsible=1;marginBottom=0;fontSize=16;" parent="1" vertex="1">
          <mxGeometry x="1171" y="455" width="673" height="52" as="geometry">
            <mxRectangle x="110" y="338" width="115" height="31" as="alternateBounds" />
          </mxGeometry>
        </mxCell>
        <mxCell id="61zmjNbOXToTeWoblzgA-51" value="+ FlightReport(string driverName, uint orderID, bool flightRes, bool carCondition): void&#xa;&#xa;&#xa;&#xa;" style="text;strokeColor=none;fillColor=none;align=left;verticalAlign=top;spacingLeft=4;spacingRight=4;overflow=hidden;rotatable=0;points=[[0,0.5],[1,0.5]];portConstraint=eastwest;fontSize=16;" parent="61zmjNbOXToTeWoblzgA-50" vertex="1">
          <mxGeometry y="26" width="673" height="26" as="geometry" />
        </mxCell>
        <mxCell id="61zmjNbOXToTeWoblzgA-55" value="" style="endArrow=none;html=1;rounded=0;fontSize=12;startSize=14;endSize=14;sourcePerimeterSpacing=8;targetPerimeterSpacing=8;curved=1;entryX=0.5;entryY=0;entryDx=0;entryDy=0;exitX=0.5;exitY=0;exitDx=0;exitDy=0;" parent="1" source="61zmjNbOXToTeWoblzgA-1" target="61zmjNbOXToTeWoblzgA-50" edge="1">
          <mxGeometry width="50" height="50" relative="1" as="geometry">
            <mxPoint x="1442" y="314" as="sourcePoint" />
            <mxPoint x="1492" y="264" as="targetPoint" />
            <Array as="points">
              <mxPoint x="1381" y="-71" />
            </Array>
          </mxGeometry>
        </mxCell>
        <mxCell id="61zmjNbOXToTeWoblzgA-56" value="" style="endArrow=none;html=1;rounded=0;fontSize=12;startSize=14;endSize=14;sourcePerimeterSpacing=8;targetPerimeterSpacing=8;curved=1;entryX=0.539;entryY=1.024;entryDx=0;entryDy=0;entryPerimeter=0;exitX=0.486;exitY=1.009;exitDx=0;exitDy=0;exitPerimeter=0;" parent="1" source="61zmjNbOXToTeWoblzgA-4" target="61zmjNbOXToTeWoblzgA-47" edge="1">
          <mxGeometry width="50" height="50" relative="1" as="geometry">
            <mxPoint x="1412" y="879" as="sourcePoint" />
            <mxPoint x="1402" y="778" as="targetPoint" />
            <Array as="points">
              <mxPoint x="829" y="1010" />
            </Array>
          </mxGeometry>
        </mxCell>
        <mxCell id="61zmjNbOXToTeWoblzgA-57" value="" style="endArrow=none;html=1;rounded=0;fontSize=12;startSize=14;endSize=14;sourcePerimeterSpacing=8;targetPerimeterSpacing=8;curved=1;entryX=0.513;entryY=1.067;entryDx=0;entryDy=0;entryPerimeter=0;" parent="1" target="61zmjNbOXToTeWoblzgA-51" edge="1">
          <mxGeometry width="50" height="50" relative="1" as="geometry">
            <mxPoint x="1516" y="630" as="sourcePoint" />
            <mxPoint x="1547" y="539" as="targetPoint" />
          </mxGeometry>
        </mxCell>
        <mxCell id="61zmjNbOXToTeWoblzgA-59" value="Databases" style="swimlane;fontStyle=1;align=center;verticalAlign=top;childLayout=stackLayout;horizontal=1;startSize=26;horizontalStack=0;resizeParent=1;resizeParentMax=0;resizeLast=0;collapsible=1;marginBottom=0;fontSize=16;" parent="1" vertex="1">
          <mxGeometry x="2110" y="525" width="332" height="104" as="geometry" />
        </mxCell>
        <mxCell id="61zmjNbOXToTeWoblzgA-60" value="+ UsersUccounts: List&lt;System.UserAccount&gt;&#xa;+ CarsList: List&lt;System.CarInfo&gt; CarsList&#xa;+ OrderList: List&lt;System.Order&gt;" style="text;strokeColor=none;fillColor=none;align=left;verticalAlign=top;spacingLeft=4;spacingRight=4;overflow=hidden;rotatable=0;points=[[0,0.5],[1,0.5]];portConstraint=eastwest;fontSize=16;" parent="61zmjNbOXToTeWoblzgA-59" vertex="1">
          <mxGeometry y="26" width="332" height="78" as="geometry" />
        </mxCell>
        <mxCell id="61zmjNbOXToTeWoblzgA-62" value="" style="endArrow=none;html=1;rounded=0;fontSize=12;startSize=14;endSize=14;sourcePerimeterSpacing=8;targetPerimeterSpacing=8;curved=1;entryX=0.5;entryY=0;entryDx=0;entryDy=0;" parent="1" target="61zmjNbOXToTeWoblzgA-59" edge="1">
          <mxGeometry width="50" height="50" relative="1" as="geometry">
            <mxPoint x="1459" y="327" as="sourcePoint" />
            <mxPoint x="2177" y="407" as="targetPoint" />
          </mxGeometry>
        </mxCell>
        <mxCell id="61zmjNbOXToTeWoblzgA-63" value="" style="endArrow=none;html=1;rounded=0;fontSize=12;startSize=14;endSize=14;sourcePerimeterSpacing=8;targetPerimeterSpacing=8;curved=1;entryX=0.513;entryY=1.005;entryDx=0;entryDy=0;entryPerimeter=0;" parent="1" target="61zmjNbOXToTeWoblzgA-60" edge="1">
          <mxGeometry width="50" height="50" relative="1" as="geometry">
            <mxPoint x="1448" y="797" as="sourcePoint" />
            <mxPoint x="2256" y="722" as="targetPoint" />
            <Array as="points">
              <mxPoint x="1903" y="880" />
            </Array>
          </mxGeometry>
        </mxCell>
        <mxCell id="1XWJiedvEwnSCoYkFORe-9" value="+ DBContext" style="swimlane;fontStyle=0;childLayout=stackLayout;horizontal=1;startSize=26;fillColor=none;horizontalStack=0;resizeParent=1;resizeParentMax=0;resizeLast=0;collapsible=1;marginBottom=0;fontSize=16;" parent="1" vertex="1">
          <mxGeometry x="621" y="-512" width="231" height="205" as="geometry">
            <mxRectangle x="621" y="-512" width="115" height="31" as="alternateBounds" />
          </mxGeometry>
        </mxCell>
        <mxCell id="1XWJiedvEwnSCoYkFORe-10" value="- Connection : string&#xa;&#xa;&#xa;&#xa;&#xa;&#xa;&#xa;" style="text;strokeColor=none;fillColor=none;align=left;verticalAlign=top;spacingLeft=4;spacingRight=4;overflow=hidden;rotatable=0;points=[[0,0.5],[1,0.5]];portConstraint=eastwest;fontSize=16;" parent="1XWJiedvEwnSCoYkFORe-9" vertex="1">
          <mxGeometry y="26" width="231" height="26" as="geometry" />
        </mxCell>
        <mxCell id="1XWJiedvEwnSCoYkFORe-11" value="+Clients : DbSet&lt;Client&gt;&#xa;+Plans : DbSet&lt;Plan&gt;&#xa;+Orders : DbSet&lt;Orders&gt;&#xa;&#xa;#onConfiguring : void&#xa;#onModelCreaing : void" style="text;strokeColor=none;fillColor=none;align=left;verticalAlign=top;spacingLeft=4;spacingRight=4;overflow=hidden;rotatable=0;points=[[0,0.5],[1,0.5]];portConstraint=eastwest;fontSize=16;" parent="1XWJiedvEwnSCoYkFORe-9" vertex="1">
          <mxGeometry y="52" width="231" height="153" as="geometry" />
        </mxCell>
        <mxCell id="UlXri_ptehR5upMiYQwt-10" value="" style="endArrow=none;html=1;rounded=0;exitX=0;exitY=0.5;exitDx=0;exitDy=0;entryX=1;entryY=0.5;entryDx=0;entryDy=0;" edge="1" parent="1XWJiedvEwnSCoYkFORe-9" source="1XWJiedvEwnSCoYkFORe-11" target="1XWJiedvEwnSCoYkFORe-11">
          <mxGeometry width="50" height="50" relative="1" as="geometry">
            <mxPoint x="31" y="133" as="sourcePoint" />
            <mxPoint x="81" y="83" as="targetPoint" />
          </mxGeometry>
        </mxCell>
        <mxCell id="1XWJiedvEwnSCoYkFORe-30" value="+ Client" style="swimlane;fontStyle=0;childLayout=stackLayout;horizontal=1;startSize=26;fillColor=none;horizontalStack=0;resizeParent=1;resizeParentMax=0;resizeLast=0;collapsible=1;marginBottom=0;fontSize=16;" parent="1" vertex="1">
          <mxGeometry x="364" y="-740" width="231" height="161" as="geometry">
            <mxRectangle x="399" y="-656" width="115" height="31" as="alternateBounds" />
          </mxGeometry>
        </mxCell>
        <mxCell id="1XWJiedvEwnSCoYkFORe-31" value="+ id : Guid&#xa;&#xa;&#xa;&#xa;&#xa;&#xa;&#xa;" style="text;strokeColor=none;fillColor=none;align=left;verticalAlign=top;spacingLeft=4;spacingRight=4;overflow=hidden;rotatable=0;points=[[0,0.5],[1,0.5]];portConstraint=eastwest;fontSize=16;" parent="1XWJiedvEwnSCoYkFORe-30" vertex="1">
          <mxGeometry y="26" width="231" height="26" as="geometry" />
        </mxCell>
        <mxCell id="1XWJiedvEwnSCoYkFORe-32" value="+Name : string&#xa;+Email : string&#xa;+Password : string&#xa;+Age : int&#xa;+Plan : Plan&#xa;" style="text;strokeColor=none;fillColor=none;align=left;verticalAlign=top;spacingLeft=4;spacingRight=4;overflow=hidden;rotatable=0;points=[[0,0.5],[1,0.5]];portConstraint=eastwest;fontSize=16;" parent="1XWJiedvEwnSCoYkFORe-30" vertex="1">
          <mxGeometry y="52" width="231" height="109" as="geometry" />
        </mxCell>
        <mxCell id="1XWJiedvEwnSCoYkFORe-34" value="" style="endArrow=diamondThin;endFill=0;endSize=24;html=1;rounded=0;exitX=0.479;exitY=1.021;exitDx=0;exitDy=0;exitPerimeter=0;entryX=0;entryY=0.25;entryDx=0;entryDy=0;" parent="1" source="1XWJiedvEwnSCoYkFORe-32" target="1XWJiedvEwnSCoYkFORe-9" edge="1">
          <mxGeometry width="160" relative="1" as="geometry">
            <mxPoint x="476" y="-562" as="sourcePoint" />
            <mxPoint x="475" y="-356" as="targetPoint" />
            <Array as="points">
              <mxPoint x="475" y="-461" />
            </Array>
          </mxGeometry>
        </mxCell>
        <mxCell id="1XWJiedvEwnSCoYkFORe-36" value="+ Plan" style="swimlane;fontStyle=0;childLayout=stackLayout;horizontal=1;startSize=26;fillColor=none;horizontalStack=0;resizeParent=1;resizeParentMax=0;resizeLast=0;collapsible=1;marginBottom=0;fontSize=16;" parent="1" vertex="1">
          <mxGeometry x="912" y="-729" width="231" height="137" as="geometry">
            <mxRectangle x="399" y="-656" width="115" height="31" as="alternateBounds" />
          </mxGeometry>
        </mxCell>
        <mxCell id="1XWJiedvEwnSCoYkFORe-37" value="+ id : Guid&#xa;&#xa;&#xa;&#xa;&#xa;&#xa;&#xa;" style="text;strokeColor=none;fillColor=none;align=left;verticalAlign=top;spacingLeft=4;spacingRight=4;overflow=hidden;rotatable=0;points=[[0,0.5],[1,0.5]];portConstraint=eastwest;fontSize=16;" parent="1XWJiedvEwnSCoYkFORe-36" vertex="1">
          <mxGeometry y="26" width="231" height="26" as="geometry" />
        </mxCell>
        <mxCell id="1XWJiedvEwnSCoYkFORe-38" value="+Name : string&#xa;+Description : string&#xa;+Created_at : date_time&#xa;+Clients : ICollection&lt;Client&gt;&#xa;" style="text;strokeColor=none;fillColor=none;align=left;verticalAlign=top;spacingLeft=4;spacingRight=4;overflow=hidden;rotatable=0;points=[[0,0.5],[1,0.5]];portConstraint=eastwest;fontSize=16;" parent="1XWJiedvEwnSCoYkFORe-36" vertex="1">
          <mxGeometry y="52" width="231" height="85" as="geometry" />
        </mxCell>
        <mxCell id="1XWJiedvEwnSCoYkFORe-39" value="" style="endArrow=diamondThin;endFill=0;endSize=24;html=1;rounded=0;exitX=0.636;exitY=1.012;exitDx=0;exitDy=0;exitPerimeter=0;entryX=1;entryY=0.5;entryDx=0;entryDy=0;" parent="1" source="1XWJiedvEwnSCoYkFORe-38" target="1XWJiedvEwnSCoYkFORe-11" edge="1">
          <mxGeometry width="160" relative="1" as="geometry">
            <mxPoint x="809" y="-511" as="sourcePoint" />
            <mxPoint x="969" y="-511" as="targetPoint" />
            <Array as="points">
              <mxPoint x="1059" y="-384" />
            </Array>
          </mxGeometry>
        </mxCell>
        <mxCell id="UlXri_ptehR5upMiYQwt-9" style="edgeStyle=orthogonalEdgeStyle;rounded=0;orthogonalLoop=1;jettySize=auto;html=1;exitX=0.5;exitY=1;exitDx=0;exitDy=0;entryX=0;entryY=0.5;entryDx=0;entryDy=0;endArrow=diamondThin;endFill=0;targetPerimeterSpacing=0;endSize=24;" edge="1" parent="1" source="1XWJiedvEwnSCoYkFORe-40" target="1XWJiedvEwnSCoYkFORe-11">
          <mxGeometry relative="1" as="geometry" />
        </mxCell>
        <mxCell id="1XWJiedvEwnSCoYkFORe-40" value="+ Orders" style="swimlane;fontStyle=0;childLayout=stackLayout;horizontal=1;startSize=26;fillColor=none;horizontalStack=0;resizeParent=1;resizeParentMax=0;resizeLast=0;collapsible=1;marginBottom=0;fontSize=16;" parent="1" vertex="1">
          <mxGeometry x="77" y="-579" width="251" height="109" as="geometry">
            <mxRectangle x="399" y="-656" width="115" height="31" as="alternateBounds" />
          </mxGeometry>
        </mxCell>
        <mxCell id="1XWJiedvEwnSCoYkFORe-41" value="+ id : Guid&#xa;&#xa;&#xa;&#xa;&#xa;&#xa;&#xa;" style="text;strokeColor=none;fillColor=none;align=left;verticalAlign=top;spacingLeft=4;spacingRight=4;overflow=hidden;rotatable=0;points=[[0,0.5],[1,0.5]];portConstraint=eastwest;fontSize=16;" parent="1XWJiedvEwnSCoYkFORe-40" vertex="1">
          <mxGeometry y="26" width="251" height="26" as="geometry" />
        </mxCell>
        <mxCell id="1XWJiedvEwnSCoYkFORe-42" value="+ClientId : Guid&#xa;+Products : ICollection&lt;Product&gt;&#xa;" style="text;strokeColor=none;fillColor=none;align=left;verticalAlign=top;spacingLeft=4;spacingRight=4;overflow=hidden;rotatable=0;points=[[0,0.5],[1,0.5]];portConstraint=eastwest;fontSize=16;" parent="1XWJiedvEwnSCoYkFORe-40" vertex="1">
          <mxGeometry y="52" width="251" height="57" as="geometry" />
        </mxCell>
        <mxCell id="1XWJiedvEwnSCoYkFORe-44" value="+ Products" style="swimlane;fontStyle=0;childLayout=stackLayout;horizontal=1;startSize=26;fillColor=none;horizontalStack=0;resizeParent=1;resizeParentMax=0;resizeLast=0;collapsible=1;marginBottom=0;fontSize=16;" parent="1" vertex="1">
          <mxGeometry x="89" y="-342" width="251" height="119" as="geometry">
            <mxRectangle x="399" y="-656" width="115" height="31" as="alternateBounds" />
          </mxGeometry>
        </mxCell>
        <mxCell id="1XWJiedvEwnSCoYkFORe-45" value="+ id : Guid&#xa;&#xa;&#xa;&#xa;&#xa;&#xa;&#xa;" style="text;strokeColor=none;fillColor=none;align=left;verticalAlign=top;spacingLeft=4;spacingRight=4;overflow=hidden;rotatable=0;points=[[0,0.5],[1,0.5]];portConstraint=eastwest;fontSize=16;" parent="1XWJiedvEwnSCoYkFORe-44" vertex="1">
          <mxGeometry y="26" width="251" height="26" as="geometry" />
        </mxCell>
        <mxCell id="1XWJiedvEwnSCoYkFORe-46" value="+ Name : string&#xa;+ Description : string&#xa;+ Cost: int&#xa;" style="text;strokeColor=none;fillColor=none;align=left;verticalAlign=top;spacingLeft=4;spacingRight=4;overflow=hidden;rotatable=0;points=[[0,0.5],[1,0.5]];portConstraint=eastwest;fontSize=16;" parent="1XWJiedvEwnSCoYkFORe-44" vertex="1">
          <mxGeometry y="52" width="251" height="67" as="geometry" />
        </mxCell>
        <mxCell id="1XWJiedvEwnSCoYkFORe-47" value="+ Couches" style="swimlane;fontStyle=0;childLayout=stackLayout;horizontal=1;startSize=26;fillColor=none;horizontalStack=0;resizeParent=1;resizeParentMax=0;resizeLast=0;collapsible=1;marginBottom=0;fontSize=16;" parent="1" vertex="1">
          <mxGeometry x="1143" y="-365" width="251" height="101" as="geometry">
            <mxRectangle x="399" y="-656" width="115" height="31" as="alternateBounds" />
          </mxGeometry>
        </mxCell>
        <mxCell id="1XWJiedvEwnSCoYkFORe-48" value="+ id : Guid&#xa;&#xa;&#xa;&#xa;&#xa;&#xa;&#xa;" style="text;strokeColor=none;fillColor=none;align=left;verticalAlign=top;spacingLeft=4;spacingRight=4;overflow=hidden;rotatable=0;points=[[0,0.5],[1,0.5]];portConstraint=eastwest;fontSize=16;" parent="1XWJiedvEwnSCoYkFORe-47" vertex="1">
          <mxGeometry y="26" width="251" height="26" as="geometry" />
        </mxCell>
        <mxCell id="1XWJiedvEwnSCoYkFORe-49" value="+ Name : string&#xa;+ Cost: int&#xa;" style="text;strokeColor=none;fillColor=none;align=left;verticalAlign=top;spacingLeft=4;spacingRight=4;overflow=hidden;rotatable=0;points=[[0,0.5],[1,0.5]];portConstraint=eastwest;fontSize=16;" parent="1XWJiedvEwnSCoYkFORe-47" vertex="1">
          <mxGeometry y="52" width="251" height="49" as="geometry" />
        </mxCell>
        <mxCell id="1XWJiedvEwnSCoYkFORe-50" value="+ ClientsConfig" style="swimlane;fontStyle=0;childLayout=stackLayout;horizontal=1;startSize=26;fillColor=none;horizontalStack=0;resizeParent=1;resizeParentMax=0;resizeLast=0;collapsible=1;marginBottom=0;fontSize=16;" parent="1" vertex="1">
          <mxGeometry x="161" y="-185" width="412" height="57" as="geometry">
            <mxRectangle x="399" y="-656" width="115" height="31" as="alternateBounds" />
          </mxGeometry>
        </mxCell>
        <mxCell id="1XWJiedvEwnSCoYkFORe-51" value="- Configure(в entity: EntityTypeBuilder&lt;Orders&gt;): void" style="text;strokeColor=none;fillColor=none;align=left;verticalAlign=top;spacingLeft=4;spacingRight=4;overflow=hidden;rotatable=0;points=[[0,0.5],[1,0.5]];portConstraint=eastwest;fontSize=16;" parent="1XWJiedvEwnSCoYkFORe-50" vertex="1">
          <mxGeometry y="26" width="412" height="31" as="geometry" />
        </mxCell>
        <mxCell id="1XWJiedvEwnSCoYkFORe-53" value="" style="html=1;verticalAlign=bottom;endArrow=block;edgeStyle=elbowEdgeStyle;elbow=vertical;curved=0;rounded=0;entryX=0.5;entryY=0;entryDx=0;entryDy=0;" parent="1" source="1XWJiedvEwnSCoYkFORe-11" target="1XWJiedvEwnSCoYkFORe-50" edge="1">
          <mxGeometry width="80" relative="1" as="geometry">
            <mxPoint x="571" y="-270.86" as="sourcePoint" />
            <mxPoint x="651" y="-270.86" as="targetPoint" />
          </mxGeometry>
        </mxCell>
        <mxCell id="1XWJiedvEwnSCoYkFORe-57" value="+ PlansConfig" style="swimlane;fontStyle=0;childLayout=stackLayout;horizontal=1;startSize=26;fillColor=none;horizontalStack=0;resizeParent=1;resizeParentMax=0;resizeLast=0;collapsible=1;marginBottom=0;fontSize=16;" parent="1" vertex="1">
          <mxGeometry x="530.5" y="-79" width="412" height="57" as="geometry">
            <mxRectangle x="399" y="-656" width="115" height="31" as="alternateBounds" />
          </mxGeometry>
        </mxCell>
        <mxCell id="1XWJiedvEwnSCoYkFORe-58" value="- Configure(в entity: EntityTypeBuilder&lt;Orders&gt;): void" style="text;strokeColor=none;fillColor=none;align=left;verticalAlign=top;spacingLeft=4;spacingRight=4;overflow=hidden;rotatable=0;points=[[0,0.5],[1,0.5]];portConstraint=eastwest;fontSize=16;" parent="1XWJiedvEwnSCoYkFORe-57" vertex="1">
          <mxGeometry y="26" width="412" height="31" as="geometry" />
        </mxCell>
        <mxCell id="1XWJiedvEwnSCoYkFORe-59" value="+ OrdersConfig" style="swimlane;fontStyle=0;childLayout=stackLayout;horizontal=1;startSize=26;fillColor=none;horizontalStack=0;resizeParent=1;resizeParentMax=0;resizeLast=0;collapsible=1;marginBottom=0;fontSize=16;" parent="1" vertex="1">
          <mxGeometry x="936" y="-179" width="412" height="57" as="geometry">
            <mxRectangle x="399" y="-656" width="115" height="31" as="alternateBounds" />
          </mxGeometry>
        </mxCell>
        <mxCell id="1XWJiedvEwnSCoYkFORe-60" value="- Configure(в entity: EntityTypeBuilder&lt;Orders&gt;): void" style="text;strokeColor=none;fillColor=none;align=left;verticalAlign=top;spacingLeft=4;spacingRight=4;overflow=hidden;rotatable=0;points=[[0,0.5],[1,0.5]];portConstraint=eastwest;fontSize=16;" parent="1XWJiedvEwnSCoYkFORe-59" vertex="1">
          <mxGeometry y="26" width="412" height="31" as="geometry" />
        </mxCell>
        <mxCell id="1XWJiedvEwnSCoYkFORe-61" value="" style="html=1;verticalAlign=bottom;endArrow=block;edgeStyle=elbowEdgeStyle;elbow=vertical;curved=0;rounded=0;entryX=0.5;entryY=0;entryDx=0;entryDy=0;" parent="1" target="1XWJiedvEwnSCoYkFORe-59" edge="1">
          <mxGeometry width="80" relative="1" as="geometry">
            <mxPoint x="736" y="-245" as="sourcePoint" />
            <mxPoint x="377" y="-175" as="targetPoint" />
          </mxGeometry>
        </mxCell>
        <mxCell id="1XWJiedvEwnSCoYkFORe-62" value="" style="html=1;verticalAlign=bottom;endArrow=block;edgeStyle=elbowEdgeStyle;elbow=vertical;curved=0;rounded=0;entryX=0.5;entryY=0;entryDx=0;entryDy=0;exitX=0.497;exitY=0.999;exitDx=0;exitDy=0;exitPerimeter=0;" parent="1" source="1XWJiedvEwnSCoYkFORe-11" target="1XWJiedvEwnSCoYkFORe-57" edge="1">
          <mxGeometry width="80" relative="1" as="geometry">
            <mxPoint x="746" y="-235" as="sourcePoint" />
            <mxPoint x="1152" y="-169" as="targetPoint" />
          </mxGeometry>
        </mxCell>
        <mxCell id="UlXri_ptehR5upMiYQwt-11" value="" style="endArrow=none;html=1;rounded=0;exitX=1;exitY=0.5;exitDx=0;exitDy=0;entryX=0;entryY=0.5;entryDx=0;entryDy=0;" edge="1" parent="1" source="1XWJiedvEwnSCoYkFORe-45" target="1XWJiedvEwnSCoYkFORe-11">
          <mxGeometry width="50" height="50" relative="1" as="geometry">
            <mxPoint x="341" y="-387" as="sourcePoint" />
            <mxPoint x="391" y="-437" as="targetPoint" />
          </mxGeometry>
        </mxCell>
        <mxCell id="UlXri_ptehR5upMiYQwt-12" value="" style="endArrow=none;html=1;rounded=0;entryX=0;entryY=0.5;entryDx=0;entryDy=0;exitX=1;exitY=0.5;exitDx=0;exitDy=0;" edge="1" parent="1" source="1XWJiedvEwnSCoYkFORe-11" target="1XWJiedvEwnSCoYkFORe-48">
          <mxGeometry width="50" height="50" relative="1" as="geometry">
            <mxPoint x="959" y="-271" as="sourcePoint" />
            <mxPoint x="1009" y="-321" as="targetPoint" />
          </mxGeometry>
        </mxCell>
      </root>
    </mxGraphModel>
  </diagram>
</mxfile>
